<svg fill="none" height="28" viewBox="0 0 130 28" width="130" xmlns="http://www.w3.org/2000/svg"><path d="m0 22.4227v-16.16893c0-.23885.232465-.41151.466396-.34635l4.439404 1.23654c.15764.04392.26647.18533.26647.34635v11.23099c0 .1547.10066.2921.24998.3413l10.73935 3.5359c.1493.0492.2499.1866.2499.3414v4.7c0 .2464-.2464.42-.484.3409l-15.678619-5.2172c-.148772-.0495-.248881-.1866-.248881-.3409z" fill="#8068bc"/><path d="m9.62645 2.82917-3.5803-1.16397c-.08941-.02906-.18678-.0232-.2719.01638l-4.61141 2.14416c-.304907.14177-.269326.5788.05467.67114l4.07492 1.16144c.09139.02603.18948.01613.27358-.02761l4.1168-2.14163c.28523-.14836.25005-.5603-.05636-.65991z" fill="#fdcd56"/><path d="m16.4102 16.531v-16.17079c0-.238867.2324-.4114979.4663-.3463427l4.4394 1.2365427c.1576.04391.2664.18534.2664.34634v11.49005 4.9553c0 .2475-.2481.4212-.4862.3402l-4.4395-1.5111c-.1475-.0503-.2464-.1868-.2464-.3402z" fill="#d971b0"/><g fill="#474747"><path d="m34.2793 12.2167c0-.996.1668-1.8986.5005-2.70762.3337-.82033.7925-1.51764 1.3764-2.09225.5958-.57436 1.2989-1.0139 2.1093-1.31868.8222-.31646 1.7219-.47469 2.6991-.47469.9891-.01174 1.8948.13475 2.717.43954.8223.29304 1.5314.72675 2.1272 1.3011.5958.57461 1.0606 1.26565 1.3942 2.07469.3337.80901.5006 1.71161.5006 2.70761 0 .9729-.1669 1.8579-.5006 2.655-.3336.7971-.7984 1.4831-1.3942 2.0574s-1.3049 1.0256-2.1272 1.3538c-.8222.3164-1.7279.4808-2.717.4921-.9772 0-1.8769-.1525-2.6991-.4569-.8104-.3163-1.5135-.7563-2.1093-1.3187-.5839-.5743-1.0427-1.2603-1.3764-2.0574s-.5005-1.6821-.5005-2.655zm2.3595-.1405c0 .6684.1013 1.2835.3039 1.8465.2145.5624.5124 1.0488.8938 1.4593.3813.4098.8341.7324 1.3585.9665.5362.2348 1.132.3521 1.7875.3521.6554 0 1.2512-.1173 1.7875-.3521.5363-.2341.9951-.5567 1.3764-.9665.3813-.4105.6733-.8969.8759-1.4593.2145-.563.3217-1.1781.3217-1.8465 0-.6214-.1072-1.2014-.3217-1.7405-.2026-.53915-.4946-1.00801-.8759-1.40656-.3813-.41048-.8401-.72682-1.3764-.94963-.5363-.23443-1.1321-.35167-1.7875-.35167-.6555 0-1.2513.11724-1.7875.35167-.5244.22281-.9772.53915-1.3585.94963-.3814.39855-.6793.86741-.8938 1.40656-.2026.5391-.3039 1.1191-.3039 1.7405z"/><path d="m49.5723 9.96492h2.0295v1.26228h.0356c.3086-.5138.724-.888 1.2462-1.1215.5222-.23403 1.086-.35106 1.6913-.35106.6527 0 1.2402.11703 1.7624.35106.5222.2216.9673.5314 1.3352.9288.368.3973.6469.8648.8368 1.4024s.2849 1.1165.2849 1.7361c0 .6195-.101 1.1978-.3027 1.7354s-.4866 1.0051-.8545 1.4025c-.3561.3974-.7893.7128-1.2997.9468-.5103.2222-1.0681.333-1.6735.333-.4034 0-.7595-.0407-1.0681-.1227s-.5816-.1871-.8189-.3154c-.2374-.1289-.4392-.2629-.6054-.4037-.1661-.1514-.3026-.2979-.4094-.438h-.0534v5.0666h-2.1363zm7.0855 4.20808c0-.3273-.0593-.6428-.178-.9469-.1069-.3042-.273-.5726-.4985-.8067-.2136-.2334-.4748-.4206-.7834-.5607-.3085-.1402-.6587-.2103-1.0503-.2103-.3917 0-.7418.0701-1.0504.2103-.3086.1401-.5756.3273-.8011.5607-.2136.2341-.3798.5025-.4985.8067-.1068.3041-.1602.6196-.1602.9469s.0534.6427.1602.9462c.1187.3042.2849.5733.4985.8067.2255.2341.4925.4206.8011.5614.3086.1402.6587.2102 1.0504.2102.3916 0 .7418-.07 1.0503-.2102.3086-.1408.5698-.3273.7834-.5614.2255-.2334.3916-.5025.4985-.8067.1187-.3035.178-.6189.178-.9462z"/><path d="m59.8438 11.7102v-1.79973h1.7779v-2.45173h2.1551v2.45173h2.3705v1.79973h-2.3705v3.7046c0 .4232.0778.7582.2334 1.005.1676.2475.4909.3709.9698.3709.1915 0 .401-.0176.6286-.0529.2274-.0472.407-.1177.5387-.2115v1.7814c-.2275.1058-.5088.1763-.844.2116-.3233.0472-.6106.0705-.8621.0705-.5746 0-1.0476-.0648-1.4187-.1939-.3592-.1178-.6466-.2998-.862-.5466-.2036-.2588-.3472-.5768-.431-.9528-.0719-.3765-.1078-.8117-.1078-1.3054v-3.8809z"/><path d="m67.8432 9.9633h2.0922v8.3974h-2.0922zm-.2963-2.85119c0-.33821.122-.62979.3661-.87471.2557-.2566.5753-.38486.9588-.38486.3836 0 .7032.12246.959.36738.2673.23324.4009.53062.4009.89219 0 .36152-.1336.66476-.4009.90968-.2558.23293-.5754.34971-.959.34971-.3835 0-.7031-.1224-.9588-.36719-.2441-.2566-.3661-.55398-.3661-.8922z"/><path d="m72.3359 9.96371h2.0391v1.31189h.0358c.1908-.3958.4948-.7461.9122-1.049.4293-.31533 1.0016-.47269 1.7171-.47269 1.3474 0 2.2417.51889 2.6829 1.55729.3101-.537.6976-.9272 1.1627-1.172.465-.25666 1.0195-.38529 1.6634-.38529.5724 0 1.0553.09366 1.4488.28039.3935.1861.7095.4427.948.7693.2504.3266.4293.7112.5366 1.1545.1073.4315.161.898.161 1.3994v5.0029h-2.1464v-4.7581c0-.2567-.0239-.5014-.0716-.7344-.0476-.2447-.1311-.4552-.2504-.63-.1192-.1867-.2802-.3322-.4829-.4371-.2028-.1049-.465-.1574-.787-.1574-.3339 0-.6201.0637-.8586.1924-.2266.1167-.4173.2797-.5723.4895-.1431.1986-.2504.4315-.322.7-.0596.2566-.0894.5189-.0894.7868v4.5483h-2.1464v-5.0029c0-.5245-.1133-.9385-.3398-1.242-.2266-.3147-.6022-.4721-1.1269-.4721-.3577 0-.6618.0581-.9122.1749-.2385.1167-.4412.2741-.6081.472-.155.1986-.2683.4259-.3399.6825-.0715.2567-.1073.5246-.1073.8043v4.5833h-2.1464z"/><path d="m93.294 17.2232h-.0534c-.308.4794-.6991.8299-1.1732 1.052-.4739.2103-.9953.3155-1.5642.3155-.391 0-.7761-.0526-1.1553-.1577-.3674-.1052-.6992-.2629-.9955-.4732-.2844-.2109-.5155-.4737-.6932-.7891-.1778-.3155-.2666-.6834-.2666-1.1046 0-.4556.0829-.8411.2488-1.1572.1659-.3273.3851-.5958.6577-.806.2844-.2222.6103-.3974.9776-.5263.3674-.1283.7466-.2222 1.1377-.2804.4029-.0701.8058-.1108 1.2087-.1227.4029-.0231.7821-.035 1.1376-.035h.5333v-.2278c0-.5263-.1837-.9175-.551-1.1747-.3674-.2691-.8355-.403-1.4043-.403-.4503 0-.871.0813-1.2621.2453-.391.1521-.7287.3623-1.0132.6308l-1.1198-1.1046c.474-.4787 1.025-.8235 1.6531-1.0338.6399-.21092 1.2976-.31606 1.9731-.31606.6043 0 1.1139.07009 1.5286.21027.4148.12889.7585.29849 1.031.50879s.48.4556.6221.736c.1541.2691.2607.5438.32.8242.0711.2804.1125.5551.1244.8242.0119.2572.0178.485.0178.6834v4.8389h-1.9197zm-.1245-2.6122h-.4444c-.2962 0-.628.0119-.9954.0351-.3673.0231-.7169.082-1.0487.1752-.32.082-.5925.2103-.8176.3862-.2252.1633-.3378.3967-.3378.7009 0 .199.0415.368.1244.5081.0948.129.2134.2397.3556.3336.1421.0933.3021.1634.4798.2103.1778.035.3556.0526.5333.0526.7347 0 1.2739-.1696 1.6176-.5082.3555-.3511.5332-.8242.5332-1.4206z"/><path d="m103.433 12.4897c-.248-.2565-.508-.4612-.779-.6133-.272-.152-.549-.2278-.832-.2278-.39 0-.738.0701-1.046.2103-.306.1402-.572.3273-.7961.5607-.2124.2341-.3781.5026-.4963.8067-.1062.3042-.1593.6196-.1593.9469s.0531.6427.1593.9463c.1182.3041.2839.5732.4963.8066.2241.2341.4901.4206.7961.5614.308.1402.656.2103 1.046.2103.33 0 .637-.0645.921-.1928.283-.1408.525-.3392.725-.5964l1.418 1.5076c-.213.2103-.461.3918-.744.5439-.272.1514-.549.2747-.833.368-.283.0932-.554.1577-.814.1927-.26.047-.484.0701-.673.0701-.638 0-1.24-.1051-1.807-.3154-.5668-.2103-1.0568-.5088-1.4696-.8943-.4135-.3855-.7441-.8474-.9919-1.385-.2362-.5494-.3543-1.1571-.3543-1.823 0-.6665.1181-1.2685.3543-1.8061.2478-.5489.5784-1.0164.9919-1.4025.4128-.3855.9028-.6834 1.4696-.8937.567-.21088 1.169-.31602 1.807-.31602.543 0 1.086.10514 1.629.31602.555.1984 1.039.5201 1.453.9638z"/><path d="m106.186 9.96445h2.144v1.33005h.036c.238-.4902.578-.8692 1.019-1.1371.44-.26851.946-.40276 1.518-.40276.131 0 .256.01186.375.03497.132.02372.263.05245.394.08742v2.02937c-.179-.0468-.358-.0818-.536-.1049-.167-.0349-.334-.0524-.501-.0524-.5 0-.905.093-1.215.2797-.298.1749-.53.379-.697.6126-.155.2329-.262.4664-.321.6993-.048.2336-.072.4084-.072.5246v4.4959h-2.144z"/><path d="m112.375 14.173c0-.6665.119-1.2686.358-1.8062.25-.5488.584-1.0163 1.002-1.4024.417-.3856.912-.6834 1.484-.8937.573-.21092 1.181-.31606 1.825-.31606s1.252.10514 1.825.31606c.572.2103 1.067.5081 1.485.8937.417.3861.745.8536.983 1.4024.251.5376.377 1.1397.377 1.8062 0 .6658-.126 1.2735-.377 1.823-.238.5376-.566.9994-.983 1.3849-.418.3855-.913.6841-1.485.8943-.573.2103-1.181.3155-1.825.3155s-1.252-.1052-1.825-.3155c-.572-.2102-1.067-.5088-1.484-.8943-.418-.3855-.752-.8473-1.002-1.3849-.239-.5495-.358-1.1572-.358-1.823zm2.146 0c0 .3273.054.6427.161.9462.12.3042.287.5733.502.8067.226.2341.495.4206.804.5614.311.1402.663.2102 1.056.2102.394 0 .745-.07 1.056-.2102.31-.1408.572-.3273.787-.5614.226-.2334.393-.5025.501-.8067.119-.3035.179-.6189.179-.9462s-.06-.6428-.179-.9469c-.108-.3042-.275-.5726-.501-.8067-.215-.2334-.477-.4206-.787-.5607-.311-.1402-.662-.2103-1.056-.2103-.393 0-.745.0701-1.056.2103-.309.1401-.578.3273-.804.5607-.215.2341-.382.5025-.502.8067-.107.3041-.161.6196-.161.9469z"/><path d="m128.311 12.2967c-.415-.5726-.972-.8586-1.671-.8586-.284 0-.563.0701-.835.2103-.273.1402-.41.368-.41.6834 0 .2572.113.4443.339.5614.224.1164.509.2159.853.2978.344.082.711.1696 1.102.2629.403.082.776.2165 1.12.403.344.1759.628.4212.853.7366s.338.7479.338 1.2974c0 .5025-.113.9293-.338 1.2798-.213.3392-.498.6139-.853.8242-.344.2103-.735.3623-1.173.4556-.439.0932-.877.1402-1.316.1402-.664 0-1.274-.0933-1.831-.2804s-1.054-.5257-1.493-1.017l1.422-1.3148c.272.3041.563.5551.871.7541.32.1871.705.2804 1.155.2804.155 0 .315-.0176.481-.0526.165-.0351.32-.0939.462-.1752.142-.082.254-.1815.337-.2979.096-.129.143-.2748.143-.4387 0-.2923-.113-.5082-.338-.6484s-.51-.2516-.854-.3336c-.343-.0932-.717-.1752-1.12-.2453-.391-.082-.758-.2046-1.101-.368-.344-.1752-.628-.4149-.854-.719-.225-.3036-.337-.7247-.337-1.2623 0-.4675.094-.8705.284-1.2097.201-.3505.462-.6365.782-.8587.32-.2221.688-.3855 1.102-.49125.415-.10514.836-.15771 1.262-.15771.569 0 1.132.0995 1.689.29856.557.1865 1.008.5138 1.352.9812z"/></g></svg>